<svg viewBox="0 0 163 32" fill="none" xmlns="http://www.w3.org/2000/svg">
<path d="M43.08 11.07C42.5667 11.07 42.1033 10.9567 41.69 10.73C41.2833 10.4967 40.9633 10.1767 40.73 9.77C40.4967 9.36333 40.38 8.88333 40.38 8.33C40.38 7.77667 40.4967 7.29667 40.73 6.89C40.9633 6.48333 41.2833 6.16667 41.69 5.94C42.1033 5.71333 42.5667 5.6 43.08 5.6C43.5267 5.6 43.9267 5.7 44.28 5.9C44.6333 6.09333 44.9133 6.39 45.12 6.79C45.3267 7.19 45.43 7.70333 45.43 8.33C45.43 8.95 45.33 9.46333 45.13 9.87C44.93 10.27 44.6533 10.57 44.3 10.77C43.9467 10.97 43.54 11.07 43.08 11.07ZM43.23 10C43.53 10 43.7967 9.93333 44.03 9.8C44.27 9.66667 44.46 9.47333 44.6 9.22C44.7467 8.96667 44.82 8.67 44.82 8.33C44.82 7.98333 44.7467 7.68667 44.6 7.44C44.46 7.18667 44.27 6.99333 44.03 6.86C43.7967 6.72667 43.53 6.66 43.23 6.66C42.93 6.66 42.66 6.72667 42.42 6.86C42.1867 6.99333 41.9967 7.18667 41.85 7.44C41.71 7.68667 41.64 7.98333 41.64 8.33C41.64 8.67 41.71 8.96667 41.85 9.22C41.9967 9.47333 42.1867 9.66667 42.42 9.8C42.66 9.93333 42.93 10 43.23 10ZM44.85 11V9.74L44.9 8.32L44.8 6.9V3.58H46.04V11H44.85ZM50.1952 11.07C49.6019 11.07 49.0819 10.9533 48.6352 10.72C48.1952 10.48 47.8519 10.1533 47.6052 9.74C47.3652 9.32667 47.2452 8.85667 47.2452 8.33C47.2452 7.79667 47.3619 7.32667 47.5952 6.92C47.8352 6.50667 48.1619 6.18333 48.5752 5.95C48.9952 5.71667 49.4719 5.6 50.0052 5.6C50.5252 5.6 50.9886 5.71333 51.3952 5.94C51.8019 6.16667 52.1219 6.48667 52.3552 6.9C52.5886 7.31333 52.7052 7.8 52.7052 8.36C52.7052 8.41333 52.7019 8.47333 52.6952 8.54C52.6952 8.60667 52.6919 8.67 52.6852 8.73H48.2352V7.9H52.0252L51.5352 8.16C51.5419 7.85333 51.4786 7.58333 51.3452 7.35C51.2119 7.11667 51.0286 6.93333 50.7952 6.8C50.5686 6.66667 50.3052 6.6 50.0052 6.6C49.6986 6.6 49.4286 6.66667 49.1952 6.8C48.9686 6.93333 48.7886 7.12 48.6552 7.36C48.5286 7.59333 48.4652 7.87 48.4652 8.19V8.39C48.4652 8.71 48.5386 8.99333 48.6852 9.24C48.8319 9.48667 49.0386 9.67667 49.3052 9.81C49.5719 9.94333 49.8786 10.01 50.2252 10.01C50.5252 10.01 50.7952 9.96333 51.0352 9.87C51.2752 9.77667 51.4886 9.63 51.6752 9.43L52.3452 10.2C52.1052 10.48 51.8019 10.6967 51.4352 10.85C51.0752 10.9967 50.6619 11.07 50.1952 11.07ZM55.2283 11L52.9383 5.66H54.2383L56.2083 10.37H55.5683L57.6083 5.66H58.8083L56.5183 11H55.2283ZM61.953 11.07C61.3597 11.07 60.8397 10.9533 60.393 10.72C59.953 10.48 59.6097 10.1533 59.363 9.74C59.123 9.32667 59.003 8.85667 59.003 8.33C59.003 7.79667 59.1197 7.32667 59.353 6.92C59.593 6.50667 59.9197 6.18333 60.333 5.95C60.753 5.71667 61.2297 5.6 61.763 5.6C62.283 5.6 62.7464 5.71333 63.153 5.94C63.5597 6.16667 63.8797 6.48667 64.113 6.9C64.3464 7.31333 64.463 7.8 64.463 8.36C64.463 8.41333 64.4597 8.47333 64.453 8.54C64.453 8.60667 64.4497 8.67 64.443 8.73H59.993V7.9H63.783L63.293 8.16C63.2997 7.85333 63.2364 7.58333 63.103 7.35C62.9697 7.11667 62.7864 6.93333 62.553 6.8C62.3264 6.66667 62.063 6.6 61.763 6.6C61.4564 6.6 61.1864 6.66667 60.953 6.8C60.7264 6.93333 60.5464 7.12 60.413 7.36C60.2864 7.59333 60.223 7.87 60.223 8.19V8.39C60.223 8.71 60.2964 8.99333 60.443 9.24C60.5897 9.48667 60.7964 9.67667 61.063 9.81C61.3297 9.94333 61.6364 10.01 61.983 10.01C62.283 10.01 62.553 9.96333 62.793 9.87C63.033 9.77667 63.2464 9.63 63.433 9.43L64.103 10.2C63.863 10.48 63.5597 10.6967 63.193 10.85C62.833 10.9967 62.4197 11.07 61.953 11.07ZM65.6638 11V3.58H66.9138V11H65.6638ZM70.9544 11.07C70.4077 11.07 69.921 10.9533 69.4944 10.72C69.0677 10.48 68.731 10.1533 68.4844 9.74C68.2377 9.32667 68.1144 8.85667 68.1144 8.33C68.1144 7.79667 68.2377 7.32667 68.4844 6.92C68.731 6.50667 69.0677 6.18333 69.4944 5.95C69.921 5.71667 70.4077 5.6 70.9544 5.6C71.5077 5.6 71.9977 5.71667 72.4244 5.95C72.8577 6.18333 73.1944 6.50333 73.4344 6.91C73.681 7.31667 73.8044 7.79 73.8044 8.33C73.8044 8.85667 73.681 9.32667 73.4344 9.74C73.1944 10.1533 72.8577 10.48 72.4244 10.72C71.9977 10.9533 71.5077 11.07 70.9544 11.07ZM70.9544 10C71.261 10 71.5344 9.93333 71.7744 9.8C72.0144 9.66667 72.201 9.47333 72.3344 9.22C72.4744 8.96667 72.5444 8.67 72.5444 8.33C72.5444 7.98333 72.4744 7.68667 72.3344 7.44C72.201 7.18667 72.0144 6.99333 71.7744 6.86C71.5344 6.72667 71.2644 6.66 70.9644 6.66C70.6577 6.66 70.3844 6.72667 70.1444 6.86C69.911 6.99333 69.7244 7.18667 69.5844 7.44C69.4444 7.68667 69.3744 7.98333 69.3744 8.33C69.3744 8.67 69.4444 8.96667 69.5844 9.22C69.7244 9.47333 69.911 9.66667 70.1444 9.8C70.3844 9.93333 70.6544 10 70.9544 10ZM77.9597 11.07C77.5264 11.07 77.1297 10.97 76.7697 10.77C76.4164 10.57 76.133 10.27 75.9197 9.87C75.713 9.46333 75.6097 8.95 75.6097 8.33C75.6097 7.70333 75.7097 7.19 75.9097 6.79C76.1164 6.39 76.3964 6.09333 76.7497 5.9C77.103 5.7 77.5064 5.6 77.9597 5.6C78.4864 5.6 78.9497 5.71333 79.3497 5.94C79.7564 6.16667 80.0764 6.48333 80.3097 6.89C80.5497 7.29667 80.6697 7.77667 80.6697 8.33C80.6697 8.88333 80.5497 9.36667 80.3097 9.78C80.0764 10.1867 79.7564 10.5033 79.3497 10.73C78.9497 10.9567 78.4864 11.07 77.9597 11.07ZM74.9997 12.94V5.66H76.1897V6.92L76.1497 8.34L76.2497 9.76V12.94H74.9997ZM77.8197 10C78.1197 10 78.3864 9.93333 78.6197 9.8C78.8597 9.66667 79.0497 9.47333 79.1897 9.22C79.3297 8.96667 79.3997 8.67 79.3997 8.33C79.3997 7.98333 79.3297 7.68667 79.1897 7.44C79.0497 7.18667 78.8597 6.99333 78.6197 6.86C78.3864 6.72667 78.1197 6.66 77.8197 6.66C77.5197 6.66 77.2497 6.72667 77.0097 6.86C76.7697 6.99333 76.5797 7.18667 76.4397 7.44C76.2997 7.68667 76.2297 7.98333 76.2297 8.33C76.2297 8.67 76.2997 8.96667 76.4397 9.22C76.5797 9.47333 76.7697 9.66667 77.0097 9.8C77.2497 9.93333 77.5197 10 77.8197 10ZM84.3652 11.07C83.7718 11.07 83.2518 10.9533 82.8052 10.72C82.3652 10.48 82.0218 10.1533 81.7752 9.74C81.5352 9.32667 81.4152 8.85667 81.4152 8.33C81.4152 7.79667 81.5318 7.32667 81.7652 6.92C82.0052 6.50667 82.3318 6.18333 82.7452 5.95C83.1652 5.71667 83.6418 5.6 84.1752 5.6C84.6952 5.6 85.1585 5.71333 85.5652 5.94C85.9718 6.16667 86.2918 6.48667 86.5252 6.9C86.7585 7.31333 86.8752 7.8 86.8752 8.36C86.8752 8.41333 86.8718 8.47333 86.8652 8.54C86.8652 8.60667 86.8618 8.67 86.8552 8.73H82.4052V7.9H86.1952L85.7052 8.16C85.7118 7.85333 85.6485 7.58333 85.5152 7.35C85.3818 7.11667 85.1985 6.93333 84.9652 6.8C84.7385 6.66667 84.4752 6.6 84.1752 6.6C83.8685 6.6 83.5985 6.66667 83.3652 6.8C83.1385 6.93333 82.9585 7.12 82.8252 7.36C82.6985 7.59333 82.6352 7.87 82.6352 8.19V8.39C82.6352 8.71 82.7085 8.99333 82.8552 9.24C83.0018 9.48667 83.2085 9.67667 83.4752 9.81C83.7418 9.94333 84.0485 10.01 84.3952 10.01C84.6952 10.01 84.9652 9.96333 85.2052 9.87C85.4452 9.77667 85.6585 9.63 85.8452 9.43L86.5152 10.2C86.2752 10.48 85.9718 10.6967 85.6052 10.85C85.2452 10.9967 84.8318 11.07 84.3652 11.07ZM90.3359 11.07C89.8225 11.07 89.3592 10.9567 88.9459 10.73C88.5392 10.4967 88.2192 10.1767 87.9859 9.77C87.7525 9.36333 87.6359 8.88333 87.6359 8.33C87.6359 7.77667 87.7525 7.29667 87.9859 6.89C88.2192 6.48333 88.5392 6.16667 88.9459 5.94C89.3592 5.71333 89.8225 5.6 90.3359 5.6C90.7825 5.6 91.1825 5.7 91.5359 5.9C91.8892 6.09333 92.1692 6.39 92.3759 6.79C92.5825 7.19 92.6859 7.70333 92.6859 8.33C92.6859 8.95 92.5859 9.46333 92.3859 9.87C92.1859 10.27 91.9092 10.57 91.5559 10.77C91.2025 10.97 90.7959 11.07 90.3359 11.07ZM90.4859 10C90.7859 10 91.0525 9.93333 91.2859 9.8C91.5259 9.66667 91.7159 9.47333 91.8559 9.22C92.0025 8.96667 92.0759 8.67 92.0759 8.33C92.0759 7.98333 92.0025 7.68667 91.8559 7.44C91.7159 7.18667 91.5259 6.99333 91.2859 6.86C91.0525 6.72667 90.7859 6.66 90.4859 6.66C90.1859 6.66 89.9159 6.72667 89.6759 6.86C89.4425 6.99333 89.2525 7.18667 89.1059 7.44C88.9659 7.68667 88.8959 7.98333 88.8959 8.33C88.8959 8.67 88.9659 8.96667 89.1059 9.22C89.2525 9.47333 89.4425 9.66667 89.6759 9.8C89.9159 9.93333 90.1859 10 90.4859 10ZM92.1059 11V9.74L92.1559 8.32L92.0559 6.9V3.58H93.2959V11H92.1059ZM100.665 11.07C100.211 11.07 99.8081 10.97 99.4548 10.77C99.1014 10.57 98.8214 10.27 98.6148 9.87C98.4148 9.46333 98.3148 8.95 98.3148 8.33C98.3148 7.70333 98.4181 7.19 98.6248 6.79C98.8381 6.39 99.1214 6.09333 99.4748 5.9C99.8348 5.7 100.231 5.6 100.665 5.6C101.191 5.6 101.655 5.71333 102.055 5.94C102.461 6.16667 102.781 6.48333 103.015 6.89C103.255 7.29667 103.375 7.77667 103.375 8.33C103.375 8.88333 103.255 9.36333 103.015 9.77C102.781 10.1767 102.461 10.4967 102.055 10.73C101.655 10.9567 101.191 11.07 100.665 11.07ZM97.7048 11V3.58H98.9548V6.9L98.8548 8.32L98.8948 9.74V11H97.7048ZM100.525 10C100.825 10 101.091 9.93333 101.325 9.8C101.565 9.66667 101.755 9.47333 101.895 9.22C102.035 8.96667 102.105 8.67 102.105 8.33C102.105 7.98333 102.035 7.68667 101.895 7.44C101.755 7.18667 101.565 6.99333 101.325 6.86C101.091 6.72667 100.825 6.66 100.525 6.66C100.225 6.66 99.9548 6.72667 99.7148 6.86C99.4748 6.99333 99.2848 7.18667 99.1448 7.44C99.0048 7.68667 98.9348 7.98333 98.9348 8.33C98.9348 8.67 99.0048 8.96667 99.1448 9.22C99.2848 9.47333 99.4748 9.66667 99.7148 9.8C99.9548 9.93333 100.225 10 100.525 10ZM104.854 13.01C104.594 13.01 104.334 12.9667 104.074 12.88C103.814 12.7933 103.597 12.6733 103.424 12.52L103.924 11.6C104.05 11.7133 104.194 11.8033 104.354 11.87C104.514 11.9367 104.677 11.97 104.844 11.97C105.07 11.97 105.254 11.9133 105.394 11.8C105.534 11.6867 105.664 11.4967 105.784 11.23L106.094 10.53L106.194 10.38L108.214 5.66H109.414L106.914 11.43C106.747 11.83 106.56 12.1467 106.354 12.38C106.154 12.6133 105.927 12.7767 105.674 12.87C105.427 12.9633 105.154 13.01 104.854 13.01ZM105.954 11.19L103.544 5.66H104.844L106.804 10.27L105.954 11.19ZM39.95 25L43.1 18H44.38L47.54 25H46.18L43.47 18.69H43.99L41.29 25H39.95ZM41.4 23.38L41.75 22.36H45.53L45.88 23.38H41.4ZM48.3102 25V17.58H49.5602V25H48.3102ZM53.7109 25.07C53.1175 25.07 52.5975 24.9533 52.1509 24.72C51.7109 24.48 51.3675 24.1533 51.1209 23.74C50.8809 23.3267 50.7609 22.8567 50.7609 22.33C50.7609 21.7967 50.8775 21.3267 51.1109 20.92C51.3509 20.5067 51.6775 20.1833 52.0909 19.95C52.5109 19.7167 52.9875 19.6 53.5209 19.6C54.0409 19.6 54.5042 19.7133 54.9109 19.94C55.3175 20.1667 55.6375 20.4867 55.8709 20.9C56.1042 21.3133 56.2209 21.8 56.2209 22.36C56.2209 22.4133 56.2175 22.4733 56.2109 22.54C56.2109 22.6067 56.2075 22.67 56.2009 22.73H51.7509V21.9H55.5409L55.0509 22.16C55.0575 21.8533 54.9942 21.5833 54.8609 21.35C54.7275 21.1167 54.5442 20.9333 54.3109 20.8C54.0842 20.6667 53.8209 20.6 53.5209 20.6C53.2142 20.6 52.9442 20.6667 52.7109 20.8C52.4842 20.9333 52.3042 21.12 52.1709 21.36C52.0442 21.5933 51.9809 21.87 51.9809 22.19V22.39C51.9809 22.71 52.0542 22.9933 52.2009 23.24C52.3475 23.4867 52.5542 23.6767 52.8209 23.81C53.0875 23.9433 53.3942 24.01 53.7409 24.01C54.0409 24.01 54.3109 23.9633 54.5509 23.87C54.7909 23.7767 55.0042 23.63 55.1909 23.43L55.8609 24.2C55.6209 24.48 55.3175 24.6967 54.9509 24.85C54.5909 24.9967 54.1775 25.07 53.7109 25.07ZM56.5451 25L58.8951 21.94L58.8751 22.61L56.6351 19.66H58.0251L59.5951 21.76H59.0651L60.6451 19.66H61.9951L59.7351 22.61L59.7451 21.94L62.0851 25H60.6751L59.0251 22.77L59.5451 22.84L57.9251 25H56.5451ZM66.1998 25V23.92L66.1298 23.69V21.8C66.1298 21.4333 66.0198 21.15 65.7998 20.95C65.5798 20.7433 65.2465 20.64 64.7998 20.64C64.4998 20.64 64.2032 20.6867 63.9098 20.78C63.6232 20.8733 63.3798 21.0033 63.1798 21.17L62.6898 20.26C62.9765 20.04 63.3165 19.8767 63.7098 19.77C64.1098 19.6567 64.5232 19.6 64.9498 19.6C65.7232 19.6 66.3198 19.7867 66.7398 20.16C67.1665 20.5267 67.3798 21.0967 67.3798 21.87V25H66.1998ZM64.5198 25.07C64.1198 25.07 63.7698 25.0033 63.4698 24.87C63.1698 24.73 62.9365 24.54 62.7698 24.3C62.6098 24.0533 62.5298 23.7767 62.5298 23.47C62.5298 23.17 62.5998 22.9 62.7398 22.66C62.8865 22.42 63.1232 22.23 63.4498 22.09C63.7765 21.95 64.2098 21.88 64.7498 21.88H66.2998V22.71H64.8398C64.4132 22.71 64.1265 22.78 63.9798 22.92C63.8332 23.0533 63.7598 23.22 63.7598 23.42C63.7598 23.6467 63.8498 23.8267 64.0298 23.96C64.2098 24.0933 64.4598 24.16 64.7798 24.16C65.0865 24.16 65.3598 24.09 65.5998 23.95C65.8465 23.81 66.0232 23.6033 66.1298 23.33L66.3398 24.08C66.2198 24.3933 66.0032 24.6367 65.6898 24.81C65.3832 24.9833 64.9932 25.07 64.5198 25.07ZM72.0141 19.6C72.4407 19.6 72.8207 19.6833 73.1541 19.85C73.4941 20.0167 73.7607 20.2733 73.9541 20.62C74.1474 20.96 74.2441 21.4 74.2441 21.94V25H72.9941V22.1C72.9941 21.6267 72.8807 21.2733 72.6541 21.04C72.4341 20.8067 72.1241 20.69 71.7241 20.69C71.4307 20.69 71.1707 20.75 70.9441 20.87C70.7174 20.99 70.5407 21.17 70.4141 21.41C70.2941 21.6433 70.2341 21.94 70.2341 22.3V25H68.9841V19.66H70.1741V21.1L69.9641 20.66C70.1507 20.32 70.4207 20.06 70.7741 19.88C71.1341 19.6933 71.5474 19.6 72.0141 19.6ZM78.0995 25.07C77.5862 25.07 77.1229 24.9567 76.7095 24.73C76.3029 24.4967 75.9829 24.1767 75.7495 23.77C75.5162 23.3633 75.3995 22.8833 75.3995 22.33C75.3995 21.7767 75.5162 21.2967 75.7495 20.89C75.9829 20.4833 76.3029 20.1667 76.7095 19.94C77.1229 19.7133 77.5862 19.6 78.0995 19.6C78.5462 19.6 78.9462 19.7 79.2995 19.9C79.6529 20.0933 79.9329 20.39 80.1395 20.79C80.3462 21.19 80.4495 21.7033 80.4495 22.33C80.4495 22.95 80.3495 23.4633 80.1495 23.87C79.9495 24.27 79.6729 24.57 79.3195 24.77C78.9662 24.97 78.5595 25.07 78.0995 25.07ZM78.2495 24C78.5495 24 78.8162 23.9333 79.0495 23.8C79.2895 23.6667 79.4795 23.4733 79.6195 23.22C79.7662 22.9667 79.8395 22.67 79.8395 22.33C79.8395 21.9833 79.7662 21.6867 79.6195 21.44C79.4795 21.1867 79.2895 20.9933 79.0495 20.86C78.8162 20.7267 78.5495 20.66 78.2495 20.66C77.9495 20.66 77.6795 20.7267 77.4395 20.86C77.2062 20.9933 77.0162 21.1867 76.8695 21.44C76.7295 21.6867 76.6595 21.9833 76.6595 22.33C76.6595 22.67 76.7295 22.9667 76.8695 23.22C77.0162 23.4733 77.2062 23.6667 77.4395 23.8C77.6795 23.9333 77.9495 24 78.2495 24ZM79.8695 25V23.74L79.9195 22.32L79.8195 20.9V17.58H81.0595V25H79.8695ZM85.2148 25.07C84.6214 25.07 84.1014 24.9533 83.6548 24.72C83.2148 24.48 82.8714 24.1533 82.6248 23.74C82.3848 23.3267 82.2648 22.8567 82.2648 22.33C82.2648 21.7967 82.3814 21.3267 82.6148 20.92C82.8548 20.5067 83.1814 20.1833 83.5948 19.95C84.0148 19.7167 84.4914 19.6 85.0248 19.6C85.5448 19.6 86.0081 19.7133 86.4148 19.94C86.8214 20.1667 87.1414 20.4867 87.3748 20.9C87.6081 21.3133 87.7248 21.8 87.7248 22.36C87.7248 22.4133 87.7214 22.4733 87.7148 22.54C87.7148 22.6067 87.7114 22.67 87.7048 22.73H83.2548V21.9H87.0448L86.5548 22.16C86.5614 21.8533 86.4981 21.5833 86.3648 21.35C86.2314 21.1167 86.0481 20.9333 85.8148 20.8C85.5881 20.6667 85.3248 20.6 85.0248 20.6C84.7181 20.6 84.4481 20.6667 84.2148 20.8C83.9881 20.9333 83.8081 21.12 83.6748 21.36C83.5481 21.5933 83.4848 21.87 83.4848 22.19V22.39C83.4848 22.71 83.5581 22.9933 83.7048 23.24C83.8514 23.4867 84.0581 23.6767 84.3248 23.81C84.5914 23.9433 84.8981 24.01 85.2448 24.01C85.5448 24.01 85.8148 23.9633 86.0548 23.87C86.2948 23.7767 86.5081 23.63 86.6948 23.43L87.3648 24.2C87.1248 24.48 86.8214 24.6967 86.4548 24.85C86.0948 24.9967 85.6814 25.07 85.2148 25.07ZM88.9255 25V19.66H90.1155V21.13L89.9755 20.7C90.1355 20.34 90.3855 20.0667 90.7255 19.88C91.0721 19.6933 91.5021 19.6 92.0155 19.6V20.79C91.9621 20.7767 91.9121 20.77 91.8655 20.77C91.8188 20.7633 91.7721 20.76 91.7255 20.76C91.2521 20.76 90.8755 20.9 90.5955 21.18C90.3155 21.4533 90.1755 21.8633 90.1755 22.41V25H88.9255ZM97.4284 25V19.1H95.1084V18H101.048V19.1H98.7284V25H97.4284ZM104.911 25V23.92L104.841 23.69V21.8C104.841 21.4333 104.731 21.15 104.511 20.95C104.291 20.7433 103.957 20.64 103.511 20.64C103.211 20.64 102.914 20.6867 102.621 20.78C102.334 20.8733 102.091 21.0033 101.891 21.17L101.401 20.26C101.687 20.04 102.027 19.8767 102.421 19.77C102.821 19.6567 103.234 19.6 103.661 19.6C104.434 19.6 105.031 19.7867 105.451 20.16C105.877 20.5267 106.091 21.0967 106.091 21.87V25H104.911ZM103.231 25.07C102.831 25.07 102.481 25.0033 102.181 24.87C101.881 24.73 101.647 24.54 101.481 24.3C101.321 24.0533 101.241 23.7767 101.241 23.47C101.241 23.17 101.311 22.9 101.451 22.66C101.597 22.42 101.834 22.23 102.161 22.09C102.487 21.95 102.921 21.88 103.461 21.88H105.011V22.71H103.551C103.124 22.71 102.837 22.78 102.691 22.92C102.544 23.0533 102.471 23.22 102.471 23.42C102.471 23.6467 102.561 23.8267 102.741 23.96C102.921 24.0933 103.171 24.16 103.491 24.16C103.797 24.16 104.071 24.09 104.311 23.95C104.557 23.81 104.734 23.6033 104.841 23.33L105.051 24.08C104.931 24.3933 104.714 24.6367 104.401 24.81C104.094 24.9833 103.704 25.07 103.231 25.07ZM107.695 25V19.66H108.945V25H107.695ZM108.325 18.78C108.092 18.78 107.898 18.7067 107.745 18.56C107.598 18.4133 107.525 18.2367 107.525 18.03C107.525 17.8167 107.598 17.64 107.745 17.5C107.898 17.3533 108.092 17.28 108.325 17.28C108.558 17.28 108.748 17.35 108.895 17.49C109.048 17.6233 109.125 17.7933 109.125 18C109.125 18.22 109.052 18.4067 108.905 18.56C108.758 18.7067 108.565 18.78 108.325 18.78ZM117.326 19.6C117.752 19.6 118.129 19.6833 118.456 19.85C118.789 20.0167 119.049 20.2733 119.236 20.62C119.422 20.96 119.516 21.4 119.516 21.94V25H118.266V22.1C118.266 21.6267 118.162 21.2733 117.956 21.04C117.749 20.8067 117.452 20.69 117.066 20.69C116.792 20.69 116.549 20.75 116.336 20.87C116.129 20.99 115.966 21.1667 115.846 21.4C115.732 21.6333 115.676 21.93 115.676 22.29V25H114.426V22.1C114.426 21.6267 114.322 21.2733 114.116 21.04C113.909 20.8067 113.612 20.69 113.226 20.69C112.952 20.69 112.709 20.75 112.496 20.87C112.289 20.99 112.126 21.1667 112.006 21.4C111.892 21.6333 111.836 21.93 111.836 22.29V25H110.586V19.66H111.776V21.08L111.566 20.66C111.746 20.3133 112.006 20.05 112.346 19.87C112.692 19.69 113.086 19.6 113.526 19.6C114.026 19.6 114.459 19.7233 114.826 19.97C115.199 20.2167 115.446 20.59 115.566 21.09L115.076 20.92C115.249 20.52 115.536 20.2 115.936 19.96C116.336 19.72 116.799 19.6 117.326 19.6ZM124.403 25V23.92L124.333 23.69V21.8C124.333 21.4333 124.223 21.15 124.003 20.95C123.783 20.7433 123.45 20.64 123.003 20.64C122.703 20.64 122.406 20.6867 122.113 20.78C121.826 20.8733 121.583 21.0033 121.383 21.17L120.893 20.26C121.18 20.04 121.52 19.8767 121.913 19.77C122.313 19.6567 122.726 19.6 123.153 19.6C123.926 19.6 124.523 19.7867 124.943 20.16C125.37 20.5267 125.583 21.0967 125.583 21.87V25H124.403ZM122.723 25.07C122.323 25.07 121.973 25.0033 121.673 24.87C121.373 24.73 121.14 24.54 120.973 24.3C120.813 24.0533 120.733 23.7767 120.733 23.47C120.733 23.17 120.803 22.9 120.943 22.66C121.09 22.42 121.326 22.23 121.653 22.09C121.98 21.95 122.413 21.88 122.953 21.88H124.503V22.71H123.043C122.616 22.71 122.33 22.78 122.183 22.92C122.036 23.0533 121.963 23.22 121.963 23.42C121.963 23.6467 122.053 23.8267 122.233 23.96C122.413 24.0933 122.663 24.16 122.983 24.16C123.29 24.16 123.563 24.09 123.803 23.95C124.05 23.81 124.226 23.6033 124.333 23.33L124.543 24.08C124.423 24.3933 124.206 24.6367 123.893 24.81C123.586 24.9833 123.196 25.07 122.723 25.07ZM128.837 25.07C128.391 25.07 127.961 25.0133 127.547 24.9C127.141 24.78 126.817 24.6367 126.577 24.47L127.057 23.52C127.297 23.6733 127.584 23.8 127.917 23.9C128.251 24 128.584 24.05 128.917 24.05C129.311 24.05 129.594 23.9967 129.767 23.89C129.947 23.7833 130.037 23.64 130.037 23.46C130.037 23.3133 129.977 23.2033 129.857 23.13C129.737 23.05 129.581 22.99 129.387 22.95C129.194 22.91 128.977 22.8733 128.737 22.84C128.504 22.8067 128.267 22.7633 128.027 22.71C127.794 22.65 127.581 22.5667 127.387 22.46C127.194 22.3467 127.037 22.1967 126.917 22.01C126.797 21.8233 126.737 21.5767 126.737 21.27C126.737 20.93 126.834 20.6367 127.027 20.39C127.221 20.1367 127.491 19.9433 127.837 19.81C128.191 19.67 128.607 19.6 129.087 19.6C129.447 19.6 129.811 19.64 130.177 19.72C130.544 19.8 130.847 19.9133 131.087 20.06L130.607 21.01C130.354 20.8567 130.097 20.7533 129.837 20.7C129.584 20.64 129.331 20.61 129.077 20.61C128.697 20.61 128.414 20.6667 128.227 20.78C128.047 20.8933 127.957 21.0367 127.957 21.21C127.957 21.37 128.017 21.49 128.137 21.57C128.257 21.65 128.414 21.7133 128.607 21.76C128.801 21.8067 129.014 21.8467 129.247 21.88C129.487 21.9067 129.724 21.95 129.957 22.01C130.191 22.07 130.404 22.1533 130.597 22.26C130.797 22.36 130.957 22.5033 131.077 22.69C131.197 22.8767 131.257 23.12 131.257 23.42C131.257 23.7533 131.157 24.0433 130.957 24.29C130.764 24.5367 130.487 24.73 130.127 24.87C129.767 25.0033 129.337 25.07 128.837 25.07ZM134.734 25.07C134.187 25.07 133.7 24.9533 133.274 24.72C132.847 24.48 132.51 24.1533 132.264 23.74C132.017 23.3267 131.894 22.8567 131.894 22.33C131.894 21.7967 132.017 21.3267 132.264 20.92C132.51 20.5067 132.847 20.1833 133.274 19.95C133.7 19.7167 134.187 19.6 134.734 19.6C135.287 19.6 135.777 19.7167 136.204 19.95C136.637 20.1833 136.974 20.5033 137.214 20.91C137.46 21.3167 137.584 21.79 137.584 22.33C137.584 22.8567 137.46 23.3267 137.214 23.74C136.974 24.1533 136.637 24.48 136.204 24.72C135.777 24.9533 135.287 25.07 134.734 25.07ZM134.734 24C135.04 24 135.314 23.9333 135.554 23.8C135.794 23.6667 135.98 23.4733 136.114 23.22C136.254 22.9667 136.324 22.67 136.324 22.33C136.324 21.9833 136.254 21.6867 136.114 21.44C135.98 21.1867 135.794 20.9933 135.554 20.86C135.314 20.7267 135.044 20.66 134.744 20.66C134.437 20.66 134.164 20.7267 133.924 20.86C133.69 20.9933 133.504 21.1867 133.364 21.44C133.224 21.6867 133.154 21.9833 133.154 22.33C133.154 22.67 133.224 22.9667 133.364 23.22C133.504 23.4733 133.69 23.6667 133.924 23.8C134.164 23.9333 134.434 24 134.734 24ZM140.053 25L137.762 19.66H139.062L141.033 24.37H140.393L142.433 19.66H143.633L141.343 25H140.053Z" fill="white"/>
<path d="M10.2219 19.5831C11.8993 20.0031 13.8019 20.0031 15.7179 19.4898C17.6339 18.9764 19.2819 18.0244 20.5246 16.8218" stroke="white" stroke-width="2" stroke-linecap="round"/>
<path d="M18.201 13.3021C18.9123 13.1115 19.2571 12.092 18.9712 11.0251C18.6854 9.95818 17.877 9.24777 17.1657 9.43836C16.4544 9.62894 16.1096 10.6484 16.3954 11.7153C16.6813 12.7822 17.4897 13.4926 18.201 13.3021Z" fill="white"/>
<path d="M10.4743 15.3736C11.1856 15.183 11.5304 14.1636 11.2446 13.0966C10.9587 12.0297 10.1503 11.3193 9.43902 11.5099C8.72774 11.7005 8.38288 12.7199 8.66876 13.7868C8.95464 14.8538 9.76301 15.5642 10.4743 15.3736Z" fill="white"/>
<path d="M15.6713 19.6711L16.3086 20.9698C16.4239 21.2063 16.5847 21.4177 16.7819 21.5919C16.979 21.7662 17.2086 21.8998 17.4575 21.9852C17.7063 22.0705 17.9696 22.1059 18.2322 22.0894C18.4948 22.0728 18.7515 22.0046 18.9877 21.8887C19.2239 21.7727 19.4348 21.6113 19.6085 21.4137C19.7822 21.2161 19.9152 20.9862 19.9999 20.7371C20.0846 20.488 20.1193 20.2246 20.102 19.9621C20.0848 19.6995 20.0158 19.443 19.8993 19.2071L19.2859 17.9604" stroke="white" stroke-width="2"/>
<path d="M4.90862 4.90718C6.56226 3.25003 8.62496 2.05998 10.8873 1.45784C17.9993 -0.448822 25.3113 3.77385 27.2166 10.8858C29.1233 17.9992 24.902 25.3098 17.79 27.2165C10.678 29.1232 3.36462 24.9005 1.45795 17.7885C0.848255 15.5286 0.847335 13.1476 1.45529 10.8872" stroke="white" stroke-width="2" stroke-linecap="round"/>
</svg>
